<svg xmlns="http://www.w3.org/2000/svg" version="1.1" height="200px" width="400px"> <g>
  <g>
    <g>
      <rect x="20" y="76.36" width="47.29" height="47.29" fill="#f47b21"></rect>
      <g fill="#c3621a">
        <path d="M67.28717,112.12024c-4.30619,-4.35585 -6.84729,-6.97207 -6.84729,-7.08022c0,-0.71249 0.09788,-1.40032 0.26473,-1.88507L67.28717,109.73752z"></path>
        <path d="M67.28717,109.94955c-4.16672,-4.21241 -6.60763,-6.72179 -6.58257,-6.79459L61.56737,100.65527c0.07137,-0.20599 2.16261,1.68377 5.7198,5.09978z"></path>
        <path d="M67.28717,106.37506L61.56737,100.65527c0.52175,-1.5059 0.24854,-3.28115 -0.63928,-4.13583c-0.05913,-0.05684 2.2993,2.30319 6.35907,6.36405z"></path>
        <path d="M67.28717,104.1339c-5.06133,-5.12005 -8.04389,-8.1971 -7.90158,-8.1971c0.61038,0 1.14407,0.1996 1.54251,0.58263c0.12729,0.12254 2.45851,2.45037 6.35907,6.34861z"></path>
        <path d="M67.28717,107.31914L56.96335,96.99533c0.69207,-0.67164 1.57526,-1.05852 2.42223,-1.05852c0.09915,0 3.0418,2.87572 7.90158,7.69292z"></path>
        <path d="M67.28717,112.90049c-8.45659,-8.49493 -13.67054,-13.79315 -13.02734,-13.30374L56.96335,96.99533c0.12982,-0.12599 4.04615,3.63049 10.32381,9.81729z"></path>
        <path d="M66.54547,123.64358c-15.892,-15.91568 -26.51284,-27.79579 -22.80575,-27.79579c3.29348,0 7.674,1.58335 10.52011,3.74895L67.28717,112.62409L67.28717,123.64358z"></path>
        <path d="M46.79104,123.64358L27.81294,104.66548c0.18727,-0.36222 4.69842,-8.81768 15.92678,-8.81768c0.95319,0 10.48396,9.12932 23.54745,22.10357L67.28717,123.64358z"></path>
        <path d="M46.22151,123.64358L27.61796,105.04003L27.81294,104.66548c0.04996,-0.09664 7.83108,7.6161 19.21454,18.97811z"></path>
        <path d="M45.969,123.64358c-10.80463,-10.812 -18.10766,-18.13639 -18.15606,-18.22901L27.61796,105.04003L46.22151,123.64358z"></path>
        <path d="M46.04195,123.64358L27.81294,105.41457c0.18727,0.35836 4.69842,8.81422 15.92678,8.81422c0.59597,0 4.54504,3.56879 10.61418,9.41479z"></path>
        <path d="M49.06547,123.64358c-5.08526,-5.84601 -7.35756,-9.41479 -5.32575,-9.41479c3.29348,0 7.674,-1.58374 10.52011,-3.74934L67.28717,123.50679L67.28717,123.64358z"></path>
        <path d="M65.45696,123.64358c-7.36885,-7.67761 -11.79254,-12.71108 -11.19713,-13.16413L56.96335,113.08511c0.12982,0.12599 4.04615,4.03992 10.32381,10.31623L67.28717,123.64358z"></path>
        <path d="M67.28717,123.40892L56.96335,113.08511c0.69207,0.67164 1.57526,1.05428 2.42223,1.05428c0.09915,0 3.0418,2.87572 7.90158,7.69292z"></path>
        <path d="M67.28717,122.33649c-5.06133,-5.12005 -8.04389,-8.1971 -7.90158,-8.1971c0.61038,0 1.14407,-0.1996 1.54251,-0.58225c0.12729,-0.12259 2.45851,2.0304 6.35907,5.80897z"></path>
        <path d="M67.28717,120.1684c-4.05978,-4.11454 -6.4182,-6.55447 -6.35907,-6.61125c0.88782,-0.85506 1.16102,-2.62993 0.63928,-4.13622L67.28717,115.14073z"></path>
        <path d="M67.28717,115.44178c-3.55718,-3.62573 -5.64843,-5.8148 -5.7198,-6.02085L60.7046,106.92086c-0.02506,-0.07275 2.41585,2.3348 6.58257,6.47925z"></path>
        <path d="M53.50175,123.64358c-8.82292,-8.69015 -14.73904,-14.31205 -15.27815,-14.31205c-2.37368,0 -4.29497,-1.92168 -4.29497,-4.29151c0,-0.64232 7.98329,7.04633 19.62862,18.60356z"></path>
        <path d="M51.52647,123.64358c-10.53267,-10.63889 -17.59784,-18.00019 -17.59784,-18.60356c0,-2.3733 1.92129,-4.29497 4.29497,-4.29497c0.70093,0 10.49169,9.50379 23.94281,22.89853z"></path>
        <path d="M60.07787,123.64358c-13.33838,-13.39475 -22.55519,-22.89853 -21.85426,-22.89853c2.37368,0 4.29497,1.92168 4.29497,4.29497c0,0.60328 7.06524,7.96459 17.598,18.60356z"></path>
        <path d="M51.56956,123.64358c-8.55738,-8.69015 -13.88506,-14.31205 -13.34596,-14.31205c2.37368,0 4.29497,-1.92206 4.29497,-4.29151c0,-0.64232 7.98329,7.04633 19.62862,18.60356z"></path>
      </g>
      <path x="0" y="0" d="M60.7046,106.92086c-0.16685,-0.48437 -0.26473,-1.17258 -0.26473,-1.88083c0,-0.71249 0.09788,-1.40032 0.26473,-1.88507L61.56737,100.65527c0.52175,-1.5059 0.24854,-3.28115 -0.63928,-4.13583c-0.39844,-0.38303 -0.93213,-0.58263 -1.54251,-0.58263c-0.84697,0 -1.73017,0.38688 -2.42223,1.05852L54.25982,99.59674c-2.8461,-2.1656 -7.22662,-3.74895 -10.52011,-3.74895c-11.22836,0 -15.73951,8.45547 -15.92678,8.81768L27.61796,105.04003L27.81294,105.41457c0.18727,0.35836 4.69842,8.81422 15.92678,8.81422c3.29348,0 7.674,-1.58374 10.52011,-3.74934L56.96335,113.08511c0.69207,0.67164 1.57526,1.05428 2.42223,1.05428c0.61038,0 1.14407,-0.1996 1.54251,-0.58225c0.88782,-0.85506 1.16102,-2.62993 0.63928,-4.13622z M38.22361,109.33153c-2.37368,0 -4.29497,-1.92168 -4.29497,-4.29151c0,-2.3733 1.92129,-4.29497 4.29497,-4.29497c2.37368,0 4.29497,1.92168 4.29497,4.29497c0,2.36944 -1.92129,4.29151 -4.29497,4.29151z" fill="#000000"></path>
    </g>
    <g>
      <g>
        <g>
          <g fill="#f47b21">
            <polygon points="86.36,83.22 80.19,83.22 80.19,98.98 78.18,98.98 78.18,83.22 72.02,83.22 72.02,81.3 86.36,81.3 86.36,83.22"></polygon>
            <polygon points="103.18,81.3 103.18,98.98 101.18,98.98 101.18,91.1 90.9,91.1 90.9,98.98 88.89,98.98 88.89,81.3 90.9,81.3 90.9,89.15 101.18,89.15 101.18,81.3 103.18,81.3"></polygon>
            <polygon points="109.51,83.22 109.51,89.15 119.34,89.15 119.34,91.1 109.51,91.1 109.51,97.05 120.51,97.05 120.51,98.98 107.51,98.98 107.51,81.3 120.51,81.3 120.51,83.22 109.51,83.22"></polygon>
            <path d="M130.68588,83.72889c0.74773,-0.81894 1.65569,-1.4643 2.72387,-1.93608c1.06818,-0.47178 2.17197,-0.70767 3.31137,-0.70767c1.1394,0 2.12747,0.12462 2.96421,0.37386c0.83674,0.24924 1.59337,0.5875 2.26989,1.01477c1.40644,0.90796 2.43902,2.11856 3.09773,3.63183L142.86318,86.1056c-0.53409,-0.96137 -1.27737,-1.71354 -2.22983,-2.25654c-0.95246,-0.54299 -2.034,-0.81449 -3.24461,-0.81449c-1.21061,0 -2.24319,0.18248 -3.09773,0.54744c-0.85455,0.36496 -1.57557,0.8679 -2.16307,1.50881c-1.21061,1.31743 -1.81591,2.99982 -1.81591,5.04717c0,2.06516 0.5964,3.74755 1.78921,5.04717c1.26402,1.37084 2.93751,2.05625 5.02046,2.05625c1.67349,0 3.11554,-0.51629 4.32614,-1.54887c1.28182,-1.08599 1.92273,-2.51913 1.92273,-4.29944L136.90805,91.39311L136.90805,89.5772L145.21318,89.5772L145.21318,98.97721L143.37057,98.97721L143.37057,95.85278c-1.01477,1.53106 -2.42122,2.55474 -4.21933,3.07103c-0.65871,0.17803 -1.52661,0.26705 -2.6037,0.26705c-1.07709,0 -2.14972,-0.23589 -3.2179,-0.70767c-1.06818,-0.47178 -1.97614,-1.11714 -2.72387,-1.93608c-1.53106,-1.67349 -2.2966,-3.80986 -2.2966,-6.4091c0,-2.56364 0.79224,-4.70001 2.37671,-6.4091z"></path>
            <path x="0" y="0" d="M156.58934,81.08513c2.63485,0 4.79793,0.88125 6.48922,2.64376c1.65569,1.70909 2.48353,3.84546 2.48353,6.4091c0,2.56364 -0.82784,4.70001 -2.48353,6.4091c-1.69129,1.7625 -3.85436,2.64376 -6.48922,2.64376c-2.63485,0 -4.79793,-0.88125 -6.48922,-2.64376c-1.65569,-1.70909 -2.48353,-3.84546 -2.48353,-6.4091c0,-2.56364 0.82784,-4.70001 2.48353,-6.4091c1.69129,-1.7625 3.85436,-2.64376 6.48922,-2.64376z M156.58934,97.24142c2.10076,0 3.80095,-0.68542 5.10058,-2.05625c1.24621,-1.31743 1.86932,-2.99982 1.86932,-5.04717c0,-2.04735 -0.62311,-3.72974 -1.86932,-5.04717c-1.29962,-1.37084 -2.99982,-2.05625 -5.10058,-2.05625c-2.10076,0 -3.80095,0.68542 -5.10058,2.05625c-1.24621,1.31743 -1.86932,2.99982 -1.86932,5.04717c0,2.04735 0.62311,3.72974 1.86932,5.04717c1.29962,1.37084 2.99982,2.05625 5.10058,2.05625z"></path>
            <polygon points="170.77,81.3 170.77,97.05 180.41,97.05 180.41,98.98 168.77,98.98 168.77,81.3 170.77,81.3"></polygon>
            <path x="0" y="0" d="M190.45077,81.29877c1.05038,0 2.06516,0.20028 3.04432,0.60085c0.97917,0.40057 1.84262,0.98362 2.59035,1.74915c1.65569,1.69129 2.48353,3.85436 2.48353,6.48922c0,2.63485 -0.82784,4.79793 -2.48353,6.48922c-0.74773,0.76553 -1.61118,1.34858 -2.59035,1.74915c-0.97917,0.40057 -1.99394,0.60085 -3.04432,0.60085L183.00019,98.97721L183.00019,81.29877z M190.37066,97.08119c1.85152,0 3.35588,-0.68542 4.51308,-2.05625c1.12159,-1.31743 1.68239,-2.94641 1.68239,-4.88694c0,-1.94053 -0.5608,-3.56951 -1.68239,-4.88694c-1.1572,-1.37084 -2.66156,-2.05625 -4.51308,-2.05625L185.00303,83.1948L185.00303,97.08119L190.37066,97.08119z"></path>
            <polygon points="203.8,83.22 203.8,89.36 213.39,89.36 213.39,91.31 203.8,91.31 203.8,98.98 201.8,98.98 201.8,81.3 214.57,81.3 214.57,83.22 203.8,83.22"></polygon>
            <polygon points="219.37,98.98 217.37,98.98 217.37,81.3 219.37,81.3 219.37,98.98"></polygon>
            <path d="M225.72754,84.00929c0,0 -0.08456,0.07344 -0.25369,0.22031c-0.16913,0.14688 -0.31155,0.39834 -0.42727,0.7544c-0.11572,0.35606 -0.17358,0.73438 -0.17358,1.13495c0,0.40057 0.17358,0.76998 0.52074,1.10824c0.34716,0.33826 0.80559,0.62311 1.37529,0.85455c0.5697,0.23144 1.21951,0.43618 1.94944,0.61421c0.72993,0.17803 1.4732,0.36051 2.22983,0.54744c0.75663,0.18693 1.49991,0.40057 2.22983,0.64091c0.72993,0.24034 1.37974,0.54744 1.94944,0.92131c1.26402,0.80114 1.89603,1.89603 1.89603,3.28467c0,1.65569 -0.61866,2.9197 -1.85597,3.79205c-1.23731,0.87235 -2.95086,1.30853 -5.14063,1.30853c-2.47463,0 -4.36175,-0.51629 -5.66137,-1.54887c-1.1572,-0.92576 -1.81591,-2.24319 -1.97614,-3.95228L224.47243,93.6897c0.07121,1.21061 0.65871,2.13637 1.7625,2.77728c0.96137,0.5519 2.23428,0.82784 3.81876,0.82784c3.31137,0 4.96706,-1.04148 4.96706,-3.12444c0,-0.71212 -0.2982,-1.27292 -0.8946,-1.68239c-0.5964,-0.40947 -1.34413,-0.74773 -2.24319,-1.01477c-0.89905,-0.26705 -1.86932,-0.51629 -2.9108,-0.74773c-1.04148,-0.23144 -2.01175,-0.52964 -2.9108,-0.8946c-0.89905,-0.36496 -1.64678,-0.84565 -2.24319,-1.44205c-0.5964,-0.5964 -0.8946,-1.40199 -0.8946,-2.41677c0,-1.44205 0.5519,-2.61705 1.65569,-3.52501c1.10379,-0.90796 2.76838,-1.36193 4.99376,-1.36193c2.24319,0 3.97898,0.51629 5.2074,1.54887c1.12159,0.90796 1.718,2.07406 1.78921,3.4983L234.51336,86.1323c-0.17803,-1.45985 -1.12159,-2.43012 -2.83069,-2.9108c-0.6053,-0.17803 -1.35748,-0.26705 -2.25654,-0.26705c-0.89905,0 -1.65569,0.10237 -2.26989,0.3071c-0.61421,0.20474 -1.09044,0.45398 -1.4287,0.74773z"></path>
            <polygon points="254.41,81.3 254.41,98.98 252.41,98.98 252.41,91.1 242.12,91.1 242.12,98.98 240.12,98.98 240.12,81.3 242.12,81.3 242.12,89.15 252.41,89.15 252.41,81.3 254.41,81.3"></polygon>
            <path d="M272.30036,97.24142c1.26402,0 2.37226,-0.32046 3.32472,-0.96137c0.95246,-0.64091 1.66014,-1.50436 2.12302,-2.59035L279.85776,93.6897c-0.5875,1.67349 -1.55777,2.99091 -2.9108,3.95228c-1.44205,1.03258 -3.14224,1.54887 -5.10058,1.54887c-2.58144,0 -4.6733,-0.88125 -6.27558,-2.64376c-1.51326,-1.69129 -2.26989,-3.82766 -2.26989,-6.4091c0,-2.58144 0.75663,-4.71781 2.26989,-6.4091c1.60228,-1.7625 3.69414,-2.64376 6.27558,-2.64376c1.95834,0 3.65853,0.51629 5.10058,1.54887c1.35303,0.96137 2.3233,2.27879 2.9108,3.95228L277.7481,86.58628c-0.46288,-1.08599 -1.17055,-1.94944 -2.12302,-2.59035c-0.95246,-0.64091 -2.0607,-0.96137 -3.32472,-0.96137c-1.26402,0 -2.3144,0.18248 -3.15114,0.54744c-0.83674,0.36496 -1.53997,0.8679 -2.10966,1.50881c-1.1572,1.29962 -1.7358,2.98201 -1.7358,5.04717c0,2.06516 0.5786,3.74755 1.7358,5.04717c1.21061,1.37084 2.96421,2.05625 5.26081,2.05625z"></path>
            <polygon points="284.85,81.3 284.85,97.05 294.49,97.05 294.49,98.98 282.85,98.98 282.85,81.3 284.85,81.3"></polygon>
            <polygon points="299.09,83.22 299.09,89.15 308.91,89.15 308.91,91.1 299.09,91.1 299.09,97.05 310.09,97.05 310.09,98.98 297.08,98.98 297.08,81.3 310.09,81.3 310.09,83.22 299.09,83.22"></polygon>
            <path x="0" y="0" d="M328.75388,98.97721L326.5374,98.97721L324.37432,93.84993L315.61522,93.84993L313.45214,98.97721L311.23566,98.97721L318.73965,81.29877L321.24989,81.29877z M323.59989,92.00731L319.99477,83.38173L316.38965,92.00731L323.59989,92.00731z"></path>
            <polygon points="346.25,81.3 346.25,98.98 343.92,98.98 333,84.05 333,98.98 331,98.98 331,81.3 333.32,81.3 344.24,96.17 344.24,81.3 346.25,81.3"></polygon>
            <path d="M352.60108,84.00929c0,0 -0.08456,0.07344 -0.25369,0.22031c-0.16913,0.14688 -0.31155,0.39834 -0.42727,0.7544c-0.11572,0.35606 -0.17358,0.73438 -0.17358,1.13495c0,0.40057 0.17358,0.76998 0.52074,1.10824c0.34716,0.33826 0.80559,0.62311 1.37529,0.85455c0.5697,0.23144 1.21951,0.43618 1.94944,0.61421c0.72993,0.17803 1.4732,0.36051 2.22983,0.54744c0.75663,0.18693 1.49991,0.40057 2.22983,0.64091c0.72993,0.24034 1.37974,0.54744 1.94944,0.92131c1.26402,0.80114 1.89603,1.89603 1.89603,3.28467c0,1.65569 -0.61866,2.9197 -1.85597,3.79205c-1.23731,0.87235 -2.95086,1.30853 -5.14063,1.30853c-2.47463,0 -4.36175,-0.51629 -5.66137,-1.54887c-1.1572,-0.92576 -1.81591,-2.24319 -1.97614,-3.95228L351.34597,93.6897c0.07121,1.21061 0.65871,2.13637 1.7625,2.77728c0.96137,0.5519 2.23428,0.82784 3.81876,0.82784c3.31137,0 4.96706,-1.04148 4.96706,-3.12444c0,-0.71212 -0.2982,-1.27292 -0.8946,-1.68239c-0.5964,-0.40947 -1.34413,-0.74773 -2.24319,-1.01477c-0.89905,-0.26705 -1.86932,-0.51629 -2.9108,-0.74773c-1.04148,-0.23144 -2.01175,-0.52964 -2.9108,-0.8946c-0.89905,-0.36496 -1.64678,-0.84565 -2.24319,-1.44205c-0.5964,-0.5964 -0.8946,-1.40199 -0.8946,-2.41677c0,-1.44205 0.5519,-2.61705 1.65569,-3.52501c1.10379,-0.90796 2.76838,-1.36193 4.99376,-1.36193c2.24319,0 3.97898,0.51629 5.2074,1.54887c1.12159,0.90796 1.718,2.07406 1.78921,3.4983L361.3869,86.1323c-0.17803,-1.45985 -1.12159,-2.43012 -2.83069,-2.9108c-0.6053,-0.17803 -1.35748,-0.26705 -2.25654,-0.26705c-0.89905,0 -1.65569,0.10237 -2.26989,0.3071c-0.61421,0.20474 -1.09044,0.45398 -1.4287,0.74773z"></path>
            <polygon points="369,83.22 369,89.15 378.82,89.15 378.82,91.1 369,91.1 369,97.05 380,97.05 380,98.98 366.99,98.98 366.99,81.3 380,81.3 380,83.22 369,83.22"></polygon>
          </g>
          <g></g>
        </g>
        <g fill="#f47b21">
          <polygon points="73.22,116.78 72.02,116.78 72.02,106.18 73.22,106.18 73.22,116.78"></polygon>
          <polygon points="84.77,107.33 81.07,107.33 81.07,116.78 79.87,116.78 79.87,107.33 76.16,107.33 76.16,106.18 84.77,106.18 84.77,107.33"></polygon>
          <polygon points="88.84,109.69 88.02,109.69 87.71,106.18 89.14,106.18 88.84,109.69"></polygon>
          <path d="M94.0896,107.80308c0,0 -0.05074,0.04406 -0.15222,0.13219c-0.10148,0.08813 -0.18693,0.23901 -0.25636,0.45264c-0.06943,0.21364 -0.10415,0.44063 -0.10415,0.68097c0,0.24034 0.10415,0.46199 0.31244,0.66494c0.2083,0.20295 0.48335,0.37386 0.82517,0.51273c0.34182,0.13886 0.73171,0.26171 1.16966,0.36852c0.43796,0.10682 0.88392,0.21631 1.3379,0.32847c0.45398,0.11216 0.89994,0.24034 1.3379,0.38455c0.43796,0.1442 0.82784,0.32847 1.16966,0.55279c0.75841,0.48068 1.13762,1.13762 1.13762,1.9708c0,0.99341 -0.37119,1.75182 -1.11358,2.27523c-0.74239,0.52341 -1.77051,0.78512 -3.08438,0.78512c-1.48478,0 -2.61705,-0.30977 -3.39682,-0.92932c-0.69432,-0.55546 -1.08955,-1.34591 -1.18568,-2.37137L93.33653,113.61133c0.04273,0.72637 0.39523,1.28182 1.0575,1.66637c0.57682,0.33114 1.34057,0.49671 2.29125,0.49671c1.98682,0 2.98023,-0.62489 2.98023,-1.87466c0,-0.42727 -0.17892,-0.76375 -0.53676,-1.00943c-0.35784,-0.24568 -0.80648,-0.44864 -1.34591,-0.60886c-0.53943,-0.16023 -1.12159,-0.30977 -1.74648,-0.44864c-0.62489,-0.13886 -1.20705,-0.31778 -1.74648,-0.53676c-0.53943,-0.21898 -0.98807,-0.50739 -1.34591,-0.86523c-0.35784,-0.35784 -0.53676,-0.84119 -0.53676,-1.45006c0,-0.86523 0.33114,-1.57023 0.99341,-2.115c0.66227,-0.54477 1.66103,-0.81716 2.99626,-0.81716c1.34591,0 2.38739,0.30977 3.12444,0.92932c0.67296,0.54477 1.0308,1.24443 1.07352,2.09898L99.36109,109.07689c-0.10682,-0.87591 -0.67296,-1.45807 -1.69841,-1.74648c-0.36318,-0.10682 -0.81449,-0.16023 -1.35392,-0.16023c-0.53943,0 -0.99341,0.06142 -1.36193,0.18426c-0.36852,0.12284 -0.65426,0.27239 -0.85722,0.44864z"></path>
          <rect x="103.81" y="106.18" width="4.79" height="0.02"></rect>
          <polygon points="120.7,106.18 120.7,116.78 119.31,116.78 112.76,107.83 112.76,116.78 111.55,116.78 111.55,106.18 112.95,106.18 119.5,115.1 119.5,106.18 120.7,106.18"></polygon>
          <path x="0" y="0" d="M129.03339,106.04859c1.58091,0 2.87876,0.52875 3.89353,1.58625c0.99341,1.02546 1.49012,2.30728 1.49012,3.84546c0,1.53818 -0.49671,2.82001 -1.49012,3.84546c-1.01477,1.0575 -2.31262,1.58625 -3.89353,1.58625c-1.58091,0 -2.87876,-0.52875 -3.89353,-1.58625c-0.99341,-1.02546 -1.49012,-2.30728 -1.49012,-3.84546c0,-1.53818 0.49671,-2.82001 1.49012,-3.84546c1.01477,-1.0575 2.31262,-1.58625 3.89353,-1.58625z M129.03339,115.74236c1.26046,0 2.28057,-0.41125 3.06035,-1.23375c0.74773,-0.79046 1.12159,-1.79989 1.12159,-3.0283c0,-1.22841 -0.37386,-2.23785 -1.12159,-3.0283c-0.77977,-0.8225 -1.79989,-1.23375 -3.06035,-1.23375c-1.26046,0 -2.28057,0.41125 -3.06035,1.23375c-0.74773,0.79046 -1.12159,1.79989 -1.12159,3.0283c0,1.22841 0.37386,2.23785 1.12159,3.0283c0.77977,0.8225 1.79989,1.23375 3.06035,1.23375z"></path>
          <polygon points="145.97,107.33 142.27,107.33 142.27,116.78 141.06,116.78 141.06,107.33 137.36,107.33 137.36,106.18 145.97,106.18 145.97,107.33"></polygon>
          <rect x="148.91" y="106.18" width="4.79" height="0.02"></rect>
          <path x="0" y="0" d="M167.16572,116.78384L165.83583,116.78384L164.53798,113.70747L159.28252,113.70747L157.98467,116.78384L156.65479,116.78384L161.15718,106.17677L162.66332,106.17677z M164.07332,112.6019L161.91025,107.42655L159.74718,112.6019L164.07332,112.6019z"></path>
          <rect x="170.11" y="106.18" width="4.79" height="0.02"></rect>
          <path x="0" y="0" d="M182.32328,106.17677c0.63023,0 1.23909,0.12017 1.82659,0.36051c0.5875,0.24034 1.10557,0.59017 1.55421,1.04949c0.99341,1.01477 1.49012,2.31262 1.49012,3.89353c0,1.58091 -0.49671,2.87876 -1.49012,3.89353c-0.44864,0.45932 -0.96671,0.80915 -1.55421,1.04949c-0.5875,0.24034 -1.19637,0.36051 -1.82659,0.36051L177.85293,116.78384L177.85293,106.17677z M182.27521,115.64622c1.11091,0 2.01353,-0.41125 2.70785,-1.23375c0.67296,-0.79046 1.00943,-1.76784 1.00943,-2.93216c0,-1.16432 -0.33648,-2.14171 -1.00943,-2.93216c-0.69432,-0.8225 -1.59693,-1.23375 -2.70785,-1.23375L179.05464,107.31439L179.05464,115.64622L182.27521,115.64622z"></path>
          <polygon points="191.34,116.78 190.14,116.78 190.14,106.18 191.34,106.18 191.34,116.78"></polygon>
          <polygon points="195.49,107.33 195.49,110.89 201.39,110.89 201.39,112.06 195.49,112.06 195.49,115.63 202.09,115.63 202.09,116.78 194.29,116.78 194.29,106.18 202.09,106.18 202.09,107.33 195.49,107.33"></polygon>
          <polygon points="213.64,107.33 209.94,107.33 209.94,116.78 208.74,116.78 208.74,107.33 205.04,107.33 205.04,106.18 213.64,106.18 213.64,107.33"></polygon>
          <polygon points="217.52,115.5 219.09,115.5 217.68,118.91 216.59,118.91 217.52,115.5"></polygon>
          <rect x="222.03" y="106.18" width="4.79" height="0.02"></rect>
          <polygon points="230.98,116.78 229.78,116.78 229.78,106.18 230.98,106.18 230.98,116.78"></polygon>
          <polygon points="242.53,107.33 238.83,107.33 238.83,116.78 237.62,116.78 237.62,107.33 233.92,107.33 233.92,106.18 242.53,106.18 242.53,107.33"></polygon>
          <polygon points="246.6,109.69 245.78,109.69 245.47,106.18 246.9,106.18 246.6,109.69"></polygon>
          <path d="M251.84893,107.80308c0,0 -0.05074,0.04406 -0.15222,0.13219c-0.10148,0.08813 -0.18693,0.23901 -0.25636,0.45264c-0.06943,0.21364 -0.10415,0.44063 -0.10415,0.68097c0,0.24034 0.10415,0.46199 0.31244,0.66494c0.2083,0.20295 0.48335,0.37386 0.82517,0.51273c0.34182,0.13886 0.73171,0.26171 1.16966,0.36852c0.43796,0.10682 0.88392,0.21631 1.3379,0.32847c0.45398,0.11216 0.89994,0.24034 1.3379,0.38455c0.43796,0.1442 0.82784,0.32847 1.16966,0.55279c0.75841,0.48068 1.13762,1.13762 1.13762,1.9708c0,0.99341 -0.37119,1.75182 -1.11358,2.27523c-0.74239,0.52341 -1.77051,0.78512 -3.08438,0.78512c-1.48478,0 -2.61705,-0.30977 -3.39682,-0.92932c-0.69432,-0.55546 -1.08955,-1.34591 -1.18568,-2.37137L251.09586,113.61133c0.04273,0.72637 0.39523,1.28182 1.0575,1.66637c0.57682,0.33114 1.34057,0.49671 2.29125,0.49671c1.98682,0 2.98023,-0.62489 2.98023,-1.87466c0,-0.42727 -0.17892,-0.76375 -0.53676,-1.00943c-0.35784,-0.24568 -0.80648,-0.44864 -1.34591,-0.60886c-0.53943,-0.16023 -1.12159,-0.30977 -1.74648,-0.44864c-0.62489,-0.13886 -1.20705,-0.31778 -1.74648,-0.53676c-0.53943,-0.21898 -0.98807,-0.50739 -1.34591,-0.86523c-0.35784,-0.35784 -0.53676,-0.84119 -0.53676,-1.45006c0,-0.86523 0.33114,-1.57023 0.99341,-2.115c0.66227,-0.54477 1.66103,-0.81716 2.99626,-0.81716c1.34591,0 2.38739,0.30977 3.12444,0.92932c0.67296,0.54477 1.0308,1.24443 1.07352,2.09898L257.12041,109.07689c-0.10682,-0.87591 -0.67296,-1.45807 -1.69841,-1.74648c-0.36318,-0.10682 -0.81449,-0.16023 -1.35392,-0.16023c-0.53943,0 -0.99341,0.06142 -1.36193,0.18426c-0.36852,0.12284 -0.65426,0.27239 -0.85722,0.44864z"></path>
          <rect x="261.57" y="106.18" width="4.79" height="0.02"></rect>
          <path x="0" y="0" d="M279.8247,116.78384L278.49481,116.78384L277.19697,113.70747L271.9415,113.70747L270.64366,116.78384L269.31377,116.78384L273.81616,106.17677L275.3223,106.17677z M276.73231,112.6019L274.56923,107.42655L272.40616,112.6019L276.73231,112.6019z"></path>
          <rect x="282.77" y="106.18" width="4.79" height="0.02"></rect>
          <polygon points="291.71,106.18 291.71,115.63 297.5,115.63 297.5,116.78 290.51,116.78 290.51,106.18 291.71,106.18"></polygon>
          <polygon points="301.65,116.78 300.44,116.78 300.44,106.18 301.65,106.18 301.65,116.78"></polygon>
          <polygon points="305.79,107.33 305.79,111.02 311.55,111.02 311.55,112.19 305.79,112.19 305.79,116.78 304.59,116.78 304.59,106.18 312.25,106.18 312.25,107.33 305.79,107.33"></polygon>
          <polygon points="316.4,107.33 316.4,110.89 322.3,110.89 322.3,112.06 316.4,112.06 316.4,115.63 323,115.63 323,116.78 315.2,116.78 315.2,106.18 323,106.18 323,107.33 316.4,107.33"></polygon>
          <path d="M327.94958,107.80308c0,0 -0.05074,0.04406 -0.15222,0.13219c-0.10148,0.08813 -0.18693,0.23901 -0.25636,0.45264c-0.06943,0.21364 -0.10415,0.44063 -0.10415,0.68097c0,0.24034 0.10415,0.46199 0.31244,0.66494c0.2083,0.20295 0.48335,0.37386 0.82517,0.51273c0.34182,0.13886 0.73171,0.26171 1.16966,0.36852c0.43796,0.10682 0.88392,0.21631 1.3379,0.32847c0.45398,0.11216 0.89994,0.24034 1.3379,0.38455c0.43796,0.1442 0.82784,0.32847 1.16966,0.55279c0.75841,0.48068 1.13762,1.13762 1.13762,1.9708c0,0.99341 -0.37119,1.75182 -1.11358,2.27523c-0.74239,0.52341 -1.77051,0.78512 -3.08438,0.78512c-1.48478,0 -2.61705,-0.30977 -3.39682,-0.92932c-0.69432,-0.55546 -1.08955,-1.34591 -1.18568,-2.37137L327.19651,113.61133c0.04273,0.72637 0.39523,1.28182 1.0575,1.66637c0.57682,0.33114 1.34057,0.49671 2.29125,0.49671c1.98682,0 2.98023,-0.62489 2.98023,-1.87466c0,-0.42727 -0.17892,-0.76375 -0.53676,-1.00943c-0.35784,-0.24568 -0.80648,-0.44864 -1.34591,-0.60886c-0.53943,-0.16023 -1.12159,-0.30977 -1.74648,-0.44864c-0.62489,-0.13886 -1.20705,-0.31778 -1.74648,-0.53676c-0.53943,-0.21898 -0.98807,-0.50739 -1.34591,-0.86523c-0.35784,-0.35784 -0.53676,-0.84119 -0.53676,-1.45006c0,-0.86523 0.33114,-1.57023 0.99341,-2.115c0.66227,-0.54477 1.66103,-0.81716 2.99626,-0.81716c1.34591,0 2.38739,0.30977 3.12444,0.92932c0.67296,0.54477 1.0308,1.24443 1.07352,2.09898L333.22107,109.07689c-0.10682,-0.87591 -0.67296,-1.45807 -1.69841,-1.74648c-0.36318,-0.10682 -0.81449,-0.16023 -1.35392,-0.16023c-0.53943,0 -0.99341,0.06142 -1.36193,0.18426c-0.36852,0.12284 -0.65426,0.27239 -0.85722,0.44864z"></path>
          <polygon points="346.28,107.33 342.58,107.33 342.58,116.78 341.37,116.78 341.37,107.33 337.67,107.33 337.67,106.18 346.28,106.18 346.28,107.33"></polygon>
          <polygon points="354.88,116.78 353.68,116.78 353.68,112.59 349.22,106.18 350.68,106.18 354.27,111.34 357.86,106.18 359.32,106.18 354.88,112.59 354.88,116.78"></polygon>
          <polygon points="363.47,106.18 363.47,115.63 369.25,115.63 369.25,116.78 362.26,116.78 362.26,106.18 363.47,106.18"></polygon>
          <polygon points="373.4,107.33 373.4,110.89 379.29,110.89 379.29,112.06 373.4,112.06 373.4,115.63 380,115.63 380,116.78 372.2,116.78 372.2,106.18 380,106.18 380,107.33 373.4,107.33"></polygon>
        </g>
      </g>
      <g></g>
    </g>
  </g>
  <g></g>
</g>
</svg>